G04*
G04 #@! TF.GenerationSoftware,Altium Limited,Altium Designer,20.0.9 (164)*
G04*
G04 Layer_Color=16711935*
%FSLAX25Y25*%
%MOIN*%
G70*
G01*
G75*
%ADD44C,0.00394*%
G36*
X142833Y191250D02*
X144931Y189872D01*
Y192628D01*
X142833Y191250D01*
D02*
G37*
D44*
X164626Y256024D02*
G03*
X164626Y256024I-1969J0D01*
G01*
X178789Y246063D02*
X183711D01*
X178789Y253937D02*
X183711D01*
X178789Y246063D02*
Y253937D01*
X183711Y246063D02*
Y253937D01*
X173789Y235187D02*
X178711D01*
X173789Y227313D02*
X178711D01*
Y235187D01*
X173789Y227313D02*
Y235187D01*
X152687Y270039D02*
Y274961D01*
X144813Y270039D02*
Y274961D01*
Y270039D02*
X152687D01*
X144813Y274961D02*
X152687D01*
X122539Y239813D02*
X127461D01*
X122539Y247687D02*
X127461D01*
X122539Y239813D02*
Y247687D01*
X127461Y239813D02*
Y247687D01*
X127539Y226437D02*
X132461D01*
X127539Y218563D02*
X132461D01*
Y226437D01*
X127539Y218563D02*
Y226437D01*
X152687Y216289D02*
Y221211D01*
X144813Y216289D02*
Y221211D01*
Y216289D02*
X152687D01*
X144813Y221211D02*
X152687D01*
X161289Y222687D02*
X166211D01*
X161289Y214813D02*
X166211D01*
Y222687D01*
X161289Y214813D02*
Y222687D01*
X140295Y259567D02*
X164547D01*
X138642Y257913D02*
X140295Y259567D01*
X138642Y233661D02*
Y257913D01*
Y233661D02*
X140295Y232008D01*
X164547D01*
X166201Y233661D01*
Y257913D01*
X164547Y259567D02*
X166201Y257913D01*
X161063Y273789D02*
X168937D01*
X161063D02*
Y278711D01*
X168937D01*
Y273789D02*
Y278711D01*
X147687Y188789D02*
Y193711D01*
X139813Y188789D02*
X147687D01*
X139813D02*
Y193711D01*
X147687D01*
X124813D02*
X132687D01*
Y188789D02*
Y193711D01*
X124813Y188789D02*
X132687D01*
X124813D02*
Y193711D01*
Y266289D02*
Y271211D01*
X132687Y266289D02*
Y271211D01*
X124813D02*
X132687D01*
X124813Y266289D02*
X132687D01*
X173563D02*
Y271211D01*
X181437Y266289D02*
Y271211D01*
X173563D02*
X181437D01*
X173563Y266289D02*
X181437D01*
X136063Y206289D02*
Y211211D01*
X143937Y206289D02*
Y211211D01*
X136063D02*
X143937D01*
X136063Y206289D02*
X143937D01*
X148455Y299744D02*
Y300925D01*
X147470Y299744D02*
X148455D01*
X147470D02*
Y300925D01*
X151014Y299744D02*
Y300925D01*
X150030Y299744D02*
X151014D01*
X150030D02*
Y300925D01*
X158691Y299744D02*
Y300925D01*
X157707Y299744D02*
X158691D01*
X157707D02*
Y300925D01*
X156132Y299744D02*
Y300925D01*
X155148Y299744D02*
X156132D01*
X155148D02*
Y300925D01*
X152589Y299744D02*
Y300925D01*
Y299744D02*
X153573D01*
Y300925D01*
X137333Y322480D02*
X138022Y322972D01*
X139498Y320610D01*
X137333Y322480D02*
X138514Y320610D01*
Y300925D02*
Y320610D01*
Y300925D02*
X167648D01*
Y320610D01*
X168829Y322480D01*
X166663Y320610D02*
X168140Y322972D01*
X168829Y322480D01*
X140876Y322972D02*
X165285D01*
X140876Y320610D02*
Y322972D01*
X139498Y320610D02*
X140876D01*
X165285D02*
Y322972D01*
Y320610D02*
X166663D01*
M02*
