G04*
G04 #@! TF.GenerationSoftware,Altium Limited,Altium Designer,20.0.9 (164)*
G04*
G04 Layer_Color=8388736*
%FSLAX25Y25*%
%MOIN*%
G70*
G01*
G75*
%ADD52C,0.00394*%
%ADD53C,0.00200*%
D52*
X138514Y317854D02*
X167648D01*
D53*
X157805Y319652D02*
X157120D01*
X156891Y319576D01*
X156815Y319499D01*
X156739Y319347D01*
Y319118D01*
X156815Y318966D01*
X156891Y318890D01*
X157120Y318814D01*
X157805D01*
Y320413D01*
X155238Y319195D02*
X155314Y319042D01*
X155467Y318890D01*
X155619Y318814D01*
X155924D01*
X156076Y318890D01*
X156228Y319042D01*
X156305Y319195D01*
X156381Y319423D01*
Y319804D01*
X156305Y320033D01*
X156228Y320185D01*
X156076Y320337D01*
X155924Y320413D01*
X155619D01*
X155467Y320337D01*
X155314Y320185D01*
X155238Y320033D01*
X154789Y318814D02*
Y320413D01*
Y318814D02*
X154103D01*
X153875Y318890D01*
X153798Y318966D01*
X153722Y319118D01*
Y319271D01*
X153798Y319423D01*
X153875Y319499D01*
X154103Y319576D01*
X154789D02*
X154103D01*
X153875Y319652D01*
X153798Y319728D01*
X153722Y319880D01*
Y320109D01*
X153798Y320261D01*
X153875Y320337D01*
X154103Y320413D01*
X154789D01*
X151117Y318814D02*
X152107D01*
Y320413D01*
X151117D01*
X152107Y319576D02*
X151498D01*
X149936Y318814D02*
Y320413D01*
Y319576D02*
X150089Y319423D01*
X150241Y319347D01*
X150470D01*
X150622Y319423D01*
X150774Y319576D01*
X150850Y319804D01*
Y319956D01*
X150774Y320185D01*
X150622Y320337D01*
X150470Y320413D01*
X150241D01*
X150089Y320337D01*
X149936Y320185D01*
X148596Y319347D02*
Y320566D01*
X148672Y320794D01*
X148748Y320870D01*
X148900Y320947D01*
X149129D01*
X149281Y320870D01*
X148596Y319576D02*
X148748Y319423D01*
X148900Y319347D01*
X149129D01*
X149281Y319423D01*
X149434Y319576D01*
X149510Y319804D01*
Y319956D01*
X149434Y320185D01*
X149281Y320337D01*
X149129Y320413D01*
X148900D01*
X148748Y320337D01*
X148596Y320185D01*
X148169Y319804D02*
X147255D01*
Y319652D01*
X147331Y319499D01*
X147407Y319423D01*
X147560Y319347D01*
X147788D01*
X147941Y319423D01*
X148093Y319576D01*
X148169Y319804D01*
Y319956D01*
X148093Y320185D01*
X147941Y320337D01*
X147788Y320413D01*
X147560D01*
X147407Y320337D01*
X147255Y320185D01*
M02*
