G04*
G04 #@! TF.GenerationSoftware,Altium Limited,Altium Designer,20.0.9 (164)*
G04*
G04 Layer_Color=16711935*
%FSAX25Y25*%
%MOIN*%
G70*
G01*
G75*
%ADD38C,0.07099*%
%ADD39R,0.07099X0.07099*%
%ADD40C,0.03556*%
%ADD43C,0.13923*%
%ADD49C,0.01968*%
%ADD51C,0.00800*%
D38*
X0197000Y0178000D02*
D03*
Y0277500D02*
D03*
Y0205500D02*
D03*
Y0215500D02*
D03*
X0105500Y0178500D02*
D03*
Y0188500D02*
D03*
D39*
X0197000Y0168000D02*
D03*
Y0287500D02*
D03*
Y0195500D02*
D03*
X0105500Y0168500D02*
D03*
D40*
X0161250Y0302500D02*
D03*
X0144911D02*
D03*
D43*
X0110000Y0307500D02*
D03*
X0192500D02*
D03*
Y0110000D02*
D03*
X0110000D02*
D03*
D49*
X0161661Y0255661D02*
D03*
Y0251331D02*
D03*
Y0247000D02*
D03*
Y0242669D02*
D03*
Y0238339D02*
D03*
X0157331Y0255661D02*
D03*
Y0251331D02*
D03*
Y0247000D02*
D03*
Y0242669D02*
D03*
Y0238339D02*
D03*
X0153000Y0255661D02*
D03*
Y0251331D02*
D03*
Y0247000D02*
D03*
Y0242669D02*
D03*
Y0238339D02*
D03*
X0148669Y0255661D02*
D03*
Y0251331D02*
D03*
Y0247000D02*
D03*
Y0242669D02*
D03*
Y0238339D02*
D03*
X0144339Y0255661D02*
D03*
Y0251331D02*
D03*
Y0247000D02*
D03*
Y0242669D02*
D03*
Y0238339D02*
D03*
D51*
X0106000Y0290000D02*
D03*
Y0282000D02*
D03*
Y0266000D02*
D03*
Y0258000D02*
D03*
Y0274000D02*
D03*
Y0242000D02*
D03*
Y0234000D02*
D03*
Y0250000D02*
D03*
Y0226000D02*
D03*
M02*
