G04*
G04 #@! TF.GenerationSoftware,Altium Limited,Altium Designer,20.0.9 (164)*
G04*
G04 Layer_Color=32768*
%FSLAX25Y25*%
%MOIN*%
G70*
G01*
G75*
%ADD52C,0.00394*%
%ADD54C,0.00197*%
D52*
X153000Y245031D02*
Y248969D01*
X151031Y247000D02*
X154969D01*
D54*
X190917Y161622D02*
Y184378D01*
X203083D01*
Y161622D02*
Y184378D01*
X190917Y161622D02*
X203083D01*
X195031Y173000D02*
X198969D01*
X197000Y171031D02*
Y174969D01*
X139500Y292032D02*
Y295969D01*
X137531Y294000D02*
X141469D01*
X145799Y290555D02*
Y297445D01*
X133201D02*
X145799D01*
X133201Y290555D02*
Y297445D01*
Y290555D02*
X145799D01*
X125500Y272031D02*
Y275969D01*
X123531Y274000D02*
X127469D01*
X119201Y270555D02*
Y277445D01*
Y270555D02*
X131799D01*
Y277445D01*
X119201D02*
X131799D01*
X136957Y263043D02*
X169043D01*
X136957Y230957D02*
X169043D01*
Y263043D01*
X136957Y230957D02*
Y263043D01*
X139500Y272031D02*
Y275969D01*
X137531Y274000D02*
X141469D01*
X145799Y270555D02*
Y277445D01*
X133201D02*
X145799D01*
X133201Y270555D02*
Y277445D01*
Y270555D02*
X145799D01*
X169500Y217781D02*
Y221719D01*
X167532Y219750D02*
X171468D01*
X165957Y213648D02*
Y225852D01*
X173043D01*
Y213648D02*
Y225852D01*
X165957Y213648D02*
X173043D01*
X160750Y217781D02*
Y221719D01*
X158782Y219750D02*
X162718D01*
X164293Y213648D02*
Y225852D01*
X157207Y213648D02*
X164293D01*
X157207D02*
Y225852D01*
X164293D01*
X126500Y241282D02*
Y245218D01*
X124531Y243250D02*
X128469D01*
X132799Y239805D02*
Y246695D01*
X120201D02*
X132799D01*
X120201Y239805D02*
Y246695D01*
Y239805D02*
X132799D01*
X151031Y219750D02*
X154969D01*
X153000Y217781D02*
Y221719D01*
X149555Y226049D02*
X156445D01*
X149555Y213451D02*
Y226049D01*
Y213451D02*
X156445D01*
Y226049D01*
X142281Y219750D02*
X146219D01*
X144250Y217781D02*
Y221719D01*
X140805Y226049D02*
X147695D01*
X140805Y213451D02*
Y226049D01*
Y213451D02*
X147695D01*
Y226049D01*
X133031Y219750D02*
X136969D01*
X135000Y217781D02*
Y221719D01*
X131555Y226049D02*
X138445D01*
X131555Y213451D02*
Y226049D01*
Y213451D02*
X138445D01*
Y226049D01*
X126500Y231532D02*
Y235469D01*
X124531Y233500D02*
X128469D01*
X132799Y230055D02*
Y236945D01*
X120201D02*
X132799D01*
X120201Y230055D02*
Y236945D01*
Y230055D02*
X132799D01*
X153148Y270207D02*
Y277293D01*
Y270207D02*
X165352D01*
Y277293D01*
X153148D02*
X165352D01*
X159250Y271781D02*
Y275718D01*
X157281Y273750D02*
X161219D01*
X147531Y284000D02*
X151469D01*
X149500Y282031D02*
Y285968D01*
X146055Y277701D02*
X152945D01*
Y290299D01*
X146055D02*
X152945D01*
X146055Y277701D02*
Y290299D01*
X175457Y315602D02*
X182543D01*
X175457Y303398D02*
Y315602D01*
Y303398D02*
X182543D01*
Y315602D01*
X177032Y309500D02*
X180968D01*
X179000Y307531D02*
Y311469D01*
X167913Y290055D02*
Y296945D01*
Y290055D02*
X182087D01*
Y296945D01*
X167913D02*
X182087D01*
X175000Y291531D02*
Y295468D01*
X173031Y293500D02*
X176969D01*
X153081Y310177D02*
Y314114D01*
X151112Y312146D02*
X155049D01*
X203083Y271122D02*
Y293878D01*
X190917Y271122D02*
X203083D01*
X190917D02*
Y293878D01*
X203083D01*
X195031Y282500D02*
X198969D01*
X197000Y280532D02*
Y284469D01*
Y203532D02*
Y207469D01*
X195031Y205500D02*
X198969D01*
X190917Y189122D02*
Y221878D01*
X203083D01*
Y189122D02*
Y221878D01*
X190917Y189122D02*
X203083D01*
X105500Y176532D02*
Y180468D01*
X103532Y178500D02*
X107468D01*
X99417Y162122D02*
Y194878D01*
X111583D01*
Y162122D02*
Y194878D01*
X99417Y162122D02*
X111583D01*
X130032Y168500D02*
X133968D01*
X132000Y166532D02*
Y170468D01*
X125898Y164957D02*
X138102D01*
X125898D02*
Y172043D01*
X138102D01*
Y164957D02*
Y172043D01*
X177701Y261695D02*
X190299D01*
Y254805D02*
Y261695D01*
X177701Y254805D02*
X190299D01*
X177701D02*
Y261695D01*
X182032Y258250D02*
X185968D01*
X184000Y256281D02*
Y260219D01*
M02*
