G04*
G04 #@! TF.GenerationSoftware,Altium Limited,Altium Designer,20.0.9 (164)*
G04*
G04 Layer_Color=16711935*
%FSLAX25Y25*%
%MOIN*%
G70*
G01*
G75*
%ADD52C,0.00394*%
G36*
X174083Y293500D02*
X176181Y292122D01*
Y294878D01*
X174083Y293500D01*
D02*
G37*
D52*
X165205Y257236D02*
G03*
X165205Y257236I-1969J0D01*
G01*
X192000Y163000D02*
Y183000D01*
X202000D01*
Y163000D02*
Y183000D01*
X192000Y163000D02*
X202000D01*
X135563Y296461D02*
X143437D01*
X135563Y291539D02*
X143437D01*
X135563D02*
Y296461D01*
X143437Y291539D02*
Y296461D01*
X121563Y271539D02*
X129437D01*
X121563Y276461D02*
X129437D01*
Y271539D02*
Y276461D01*
X121563Y271539D02*
Y276461D01*
X165126Y260780D02*
X166779Y259126D01*
Y234874D02*
Y259126D01*
X165126Y233221D02*
X166779Y234874D01*
X140874Y233221D02*
X165126D01*
X139220Y234874D02*
X140874Y233221D01*
X139220Y234874D02*
Y259126D01*
X140874Y260780D01*
X165126D01*
X135563Y276461D02*
X143437D01*
X135563Y271539D02*
X143437D01*
X135563D02*
Y276461D01*
X143437Y271539D02*
Y276461D01*
X167039Y215813D02*
Y223687D01*
X171961D01*
Y215813D02*
Y223687D01*
X167039Y215813D02*
X171961D01*
X163211D02*
Y223687D01*
X158289Y215813D02*
X163211D01*
X158289D02*
Y223687D01*
X163211D01*
X122563Y245711D02*
X130437D01*
X122563Y240789D02*
X130437D01*
X122563D02*
Y245711D01*
X130437Y240789D02*
Y245711D01*
X150539Y215813D02*
Y223687D01*
X155461Y215813D02*
Y223687D01*
X150539Y215813D02*
X155461D01*
X150539Y223687D02*
X155461D01*
X141789Y215813D02*
Y223687D01*
X146711Y215813D02*
Y223687D01*
X141789Y215813D02*
X146711D01*
X141789Y223687D02*
X146711D01*
X132539Y215813D02*
Y223687D01*
X137461Y215813D02*
Y223687D01*
X132539Y215813D02*
X137461D01*
X132539Y223687D02*
X137461D01*
X122563Y235961D02*
X130437D01*
X122563Y231039D02*
X130437D01*
X122563D02*
Y235961D01*
X130437Y231039D02*
Y235961D01*
X155313Y271289D02*
Y276211D01*
Y271289D02*
X163187D01*
Y276211D01*
X155313D02*
X163187D01*
X151961Y280063D02*
Y287937D01*
X147039Y280063D02*
Y287937D01*
X151961D01*
X147039Y280063D02*
X151961D01*
X176539Y313437D02*
X181461D01*
X176539Y305563D02*
Y313437D01*
Y305563D02*
X181461D01*
Y313437D01*
X171063Y295961D02*
X178937D01*
X171063Y291039D02*
Y295961D01*
Y291039D02*
X178937D01*
Y295961D01*
X165285Y320610D02*
X166663D01*
X165285D02*
Y322972D01*
X139498Y320610D02*
X140876D01*
Y322972D01*
X165285D01*
X168140D02*
X168829Y322480D01*
X166663Y320610D02*
X168140Y322972D01*
X167648Y320610D02*
X168829Y322480D01*
X167648Y300925D02*
Y320610D01*
X138514Y300925D02*
X167648D01*
X138514D02*
Y320610D01*
X137333Y322480D02*
X138514Y320610D01*
X138022Y322972D02*
X139498Y320610D01*
X137333Y322480D02*
X138022Y322972D01*
X153573Y299744D02*
Y300925D01*
X152589Y299744D02*
X153573D01*
X152589D02*
Y300925D01*
X155148Y299744D02*
Y300925D01*
Y299744D02*
X156132D01*
Y300925D01*
X157707Y299744D02*
Y300925D01*
Y299744D02*
X158691D01*
Y300925D01*
X150030Y299744D02*
Y300925D01*
Y299744D02*
X151014D01*
Y300925D01*
X147470Y299744D02*
Y300925D01*
Y299744D02*
X148455D01*
Y300925D01*
X202000Y272500D02*
Y292500D01*
X192000Y272500D02*
X202000D01*
X192000D02*
Y292500D01*
X202000D01*
X192000Y190500D02*
Y220500D01*
X202000Y190500D02*
Y220500D01*
X192000Y190500D02*
X202000D01*
X192000Y220500D02*
X202000D01*
X100500Y163500D02*
Y193500D01*
X110500Y163500D02*
Y193500D01*
X100500Y163500D02*
X110500D01*
X100500Y193500D02*
X110500D01*
X128063Y166039D02*
X135937D01*
X128063D02*
Y170961D01*
X135937D01*
Y166039D02*
Y170961D01*
X180063Y255789D02*
Y260711D01*
X187937Y255789D02*
Y260711D01*
X180063D02*
X187937D01*
X180063Y255789D02*
X187937D01*
M02*
