G04*
G04 #@! TF.GenerationSoftware,Altium Limited,Altium Designer,20.0.9 (164)*
G04*
G04 Layer_Color=8421504*
%FSAX25Y25*%
%MOIN*%
G70*
G01*
G75*
%ADD16R,0.03543X0.05118*%
%ADD17O,0.00984X0.03543*%
%ADD18O,0.03543X0.00984*%
%ADD19R,0.21535X0.21535*%
%ADD20R,0.05354X0.03740*%
%ADD21R,0.05118X0.03543*%
%ADD22R,0.03740X0.05354*%
%ADD23R,0.04331X0.04724*%
%ADD24R,0.07480X0.07480*%
%ADD25R,0.07087X0.07480*%
%ADD26R,0.01575X0.05315*%
D16*
X0135760Y0294000D02*
D03*
X0143240D02*
D03*
X0129240Y0274000D02*
D03*
X0121760D02*
D03*
X0135760D02*
D03*
X0143240D02*
D03*
X0122760Y0243250D02*
D03*
X0130240D02*
D03*
X0122760Y0233500D02*
D03*
X0130240D02*
D03*
X0180260Y0258250D02*
D03*
X0187740D02*
D03*
D17*
X0163827Y0260287D02*
D03*
X0161858D02*
D03*
X0159890D02*
D03*
X0157921D02*
D03*
X0155953D02*
D03*
X0153984D02*
D03*
X0152016D02*
D03*
X0150047D02*
D03*
X0148079D02*
D03*
X0146110D02*
D03*
X0144142D02*
D03*
X0142173D02*
D03*
Y0233713D02*
D03*
X0144142D02*
D03*
X0146110D02*
D03*
X0148079D02*
D03*
X0150047D02*
D03*
X0152016D02*
D03*
X0153984D02*
D03*
X0155953D02*
D03*
X0157921D02*
D03*
X0159890D02*
D03*
X0161858D02*
D03*
X0163827D02*
D03*
D18*
X0139713Y0257827D02*
D03*
Y0255858D02*
D03*
Y0253890D02*
D03*
Y0251921D02*
D03*
Y0249953D02*
D03*
Y0247984D02*
D03*
Y0246016D02*
D03*
Y0244047D02*
D03*
Y0242079D02*
D03*
Y0240110D02*
D03*
Y0238142D02*
D03*
Y0236173D02*
D03*
X0166287D02*
D03*
Y0238142D02*
D03*
Y0240110D02*
D03*
Y0242079D02*
D03*
Y0244047D02*
D03*
Y0246016D02*
D03*
Y0247984D02*
D03*
Y0249953D02*
D03*
Y0251921D02*
D03*
Y0253890D02*
D03*
Y0255858D02*
D03*
Y0257827D02*
D03*
D19*
X0153000Y0247000D02*
D03*
D20*
X0169500Y0216305D02*
D03*
Y0223195D02*
D03*
X0160750D02*
D03*
Y0216305D02*
D03*
X0179000Y0306055D02*
D03*
Y0312945D02*
D03*
D21*
X0153000Y0216010D02*
D03*
Y0223490D02*
D03*
X0144250Y0216010D02*
D03*
Y0223490D02*
D03*
X0135000Y0216010D02*
D03*
Y0223490D02*
D03*
X0149500Y0287740D02*
D03*
Y0280260D02*
D03*
D22*
X0162695Y0273750D02*
D03*
X0155805D02*
D03*
X0135445Y0168500D02*
D03*
X0128555D02*
D03*
D23*
X0179134Y0293500D02*
D03*
X0170866D02*
D03*
D24*
X0157805Y0312146D02*
D03*
X0148356D02*
D03*
D25*
X0168829D02*
D03*
X0137333D02*
D03*
D26*
X0158199Y0301614D02*
D03*
X0147963D02*
D03*
X0155640D02*
D03*
X0153081D02*
D03*
X0150522D02*
D03*
M02*
