M48
;Layer_Color=9474304
;FILE_FORMAT=2:5
INCH,LZ
;TYPE=PLATED
T1F00S00C0.00787
T2F00S00C0.01181
T3F00S00C0.04331
T4F00S00C0.11811
;TYPE=NON_PLATED
T5F00S00C0.02756
%
T01
X0157331Y0238339
X0161661
Y0242669
Y0247
Y0251331
Y0255661
X0157331
Y0251331
Y0247
Y0242669
X0153
Y0247
Y0251331
Y0255661
X0148669
Y0251331
Y0247
Y0242669
Y0238339
X0153
X0144339
Y0242669
Y0247
Y0251331
Y0255661
T02
X01595Y0219644
X01715Y022875
X017075Y024725
X017475Y024575
X017775Y025175
X0172569Y0263
X017125Y02695
Y027375
X017Y028075
X0171Y0285319
X015925Y0280681
X015625Y02785
X0164176Y0267228
X018075Y026875
X01845Y027075
X018425Y026325
X0156165Y026375
X01485Y02675
X013675Y026075
X013025Y026
X01305Y02645
X012925Y02505
X012625Y02515
X0123Y0255
X011575Y0254
X011825Y023875
X0124Y022325
X011575Y021275
X0135Y021225
X014425
X01535Y021975
X0155Y028875
X0148Y029625
X014325Y0281
X013575
X01355Y028825
T03
X0197Y0168
Y0178
Y01955
Y02055
Y02155
Y02775
Y02875
X01055Y01885
Y01785
Y01685
T04
X011Y011
X01925
Y03075
X011
T05
X016125Y03025
X0144911
M30
