G04*
G04 #@! TF.GenerationSoftware,Altium Limited,Altium Designer,20.0.9 (164)*
G04*
G04 Layer_Color=255*
%FSLAX25Y25*%
%MOIN*%
G70*
G01*
G75*
%ADD15R,0.05118X0.03543*%
%ADD16R,0.03543X0.05118*%
%ADD17R,0.21535X0.21535*%
%ADD18O,0.03543X0.00984*%
%ADD19O,0.00984X0.03543*%
%ADD20R,0.03740X0.05354*%
%ADD21R,0.04331X0.04724*%
%ADD22R,0.01575X0.05315*%
%ADD23R,0.07087X0.07480*%
%ADD24R,0.07480X0.07480*%
%ADD39C,0.05906*%
%ADD40C,0.02756*%
D15*
X181250Y246260D02*
D03*
Y253740D02*
D03*
X176250Y234990D02*
D03*
Y227510D02*
D03*
X125000Y240010D02*
D03*
Y247490D02*
D03*
X130000Y226240D02*
D03*
Y218760D02*
D03*
X163750Y222490D02*
D03*
Y215010D02*
D03*
D16*
X152490Y272500D02*
D03*
X145010D02*
D03*
X152490Y218750D02*
D03*
X145010D02*
D03*
X125010Y268750D02*
D03*
X132490D02*
D03*
X173760D02*
D03*
X181240D02*
D03*
X136260Y208750D02*
D03*
X143740D02*
D03*
D17*
X152421Y245787D02*
D03*
D18*
X165709Y256614D02*
D03*
Y254646D02*
D03*
Y252677D02*
D03*
Y250709D02*
D03*
Y248740D02*
D03*
Y246772D02*
D03*
Y244803D02*
D03*
Y242835D02*
D03*
Y240866D02*
D03*
Y238898D02*
D03*
Y236929D02*
D03*
Y234961D02*
D03*
X139134D02*
D03*
Y236929D02*
D03*
Y238898D02*
D03*
Y240866D02*
D03*
Y242835D02*
D03*
Y244803D02*
D03*
Y246772D02*
D03*
Y248740D02*
D03*
Y250709D02*
D03*
Y252677D02*
D03*
Y254646D02*
D03*
Y256614D02*
D03*
D19*
X163248Y232500D02*
D03*
X161279D02*
D03*
X159311D02*
D03*
X157343D02*
D03*
X155374D02*
D03*
X153405D02*
D03*
X151437D02*
D03*
X149469D02*
D03*
X147500D02*
D03*
X145531D02*
D03*
X143563D02*
D03*
X141595D02*
D03*
Y259075D02*
D03*
X143563D02*
D03*
X145531D02*
D03*
X147500D02*
D03*
X149469D02*
D03*
X151437D02*
D03*
X153405D02*
D03*
X155374D02*
D03*
X157343D02*
D03*
X159311D02*
D03*
X161279D02*
D03*
X163248D02*
D03*
D20*
X168445Y276250D02*
D03*
X161555D02*
D03*
X125305Y191250D02*
D03*
X132195D02*
D03*
D21*
X139616D02*
D03*
X147884D02*
D03*
D22*
X150522Y301614D02*
D03*
X153081D02*
D03*
X155640D02*
D03*
X147963D02*
D03*
X158199D02*
D03*
D23*
X137333Y312146D02*
D03*
X168829D02*
D03*
D24*
X148356D02*
D03*
X157805D02*
D03*
D39*
X106250Y212500D02*
D03*
Y225000D02*
D03*
Y237500D02*
D03*
Y250000D02*
D03*
Y262500D02*
D03*
Y273750D02*
D03*
Y287500D02*
D03*
D40*
X144911Y302500D02*
D03*
X161250D02*
D03*
M02*
