M48
;Layer_Color=9474304
;FILE_FORMAT=2:5
INCH,LZ
;TYPE=PLATED
T1F00S00C0.00787
T2F00S00C0.11811
;TYPE=NON_PLATED
T3F00S00C0.02756
%
T01
X0156752Y0237126
Y0241457
Y0245787
Y0250118
Y0254449
X0161083
Y0250118
Y0245787
Y0241457
Y0237126
X0152421
X0148091
X014376
Y0241457
Y0245787
Y0250118
Y0254449
X0148091
Y0250118
Y0245787
Y0241457
X0152421
Y0245787
Y0250118
Y0254449
T02
X011Y011
X01925
Y03075
X011
T03
X016125Y03025
X0144911
M30
