G04*
G04 #@! TF.GenerationSoftware,Altium Limited,Altium Designer,20.0.9 (164)*
G04*
G04 Layer_Color=32768*
%FSLAX25Y25*%
%MOIN*%
G70*
G01*
G75*
%ADD44C,0.00394*%
%ADD46C,0.00197*%
D44*
X150453Y245787D02*
X154390D01*
X152421Y243819D02*
Y247756D01*
D46*
X177805Y243701D02*
Y256299D01*
X184695D01*
Y243701D02*
Y256299D01*
X177805Y243701D02*
X184695D01*
X181250Y248031D02*
Y251969D01*
X179281Y250000D02*
X183219D01*
X179695Y224951D02*
Y237549D01*
X172805Y224951D02*
X179695D01*
X172805D02*
Y237549D01*
X179695D01*
X176250Y229281D02*
Y233219D01*
X174282Y231250D02*
X178218D01*
X142451Y269055D02*
X155049D01*
X142451D02*
Y275945D01*
X155049D01*
Y269055D02*
Y275945D01*
X146782Y272500D02*
X150718D01*
X148750Y270532D02*
Y274468D01*
X121555Y237451D02*
Y250049D01*
X128445D01*
Y237451D02*
Y250049D01*
X121555Y237451D02*
X128445D01*
X125000Y241781D02*
Y245719D01*
X123031Y243750D02*
X126969D01*
X133445Y216201D02*
Y228799D01*
X126555Y216201D02*
X133445D01*
X126555D02*
Y228799D01*
X133445D01*
X130000Y220532D02*
Y224468D01*
X128032Y222500D02*
X131968D01*
X142451Y215305D02*
X155049D01*
X142451D02*
Y222195D01*
X155049D01*
Y215305D02*
Y222195D01*
X146782Y218750D02*
X150718D01*
X148750Y216781D02*
Y220719D01*
X167195Y212451D02*
Y225049D01*
X160305Y212451D02*
X167195D01*
X160305D02*
Y225049D01*
X167195D01*
X163750Y216781D02*
Y220719D01*
X161782Y218750D02*
X165718D01*
X136378Y229744D02*
Y261831D01*
X168465Y229744D02*
Y261831D01*
X136378Y229744D02*
X168465D01*
X136378Y261831D02*
X168465D01*
X163031Y276250D02*
X166969D01*
X165000Y274282D02*
Y278219D01*
X158898Y272707D02*
X171102D01*
X158898D02*
Y279793D01*
X171102D01*
Y272707D02*
Y279793D01*
X141781Y191250D02*
X145719D01*
X143750Y189281D02*
Y193219D01*
X136663Y194695D02*
X150837D01*
Y187805D02*
Y194695D01*
X136663Y187805D02*
X150837D01*
X136663D02*
Y194695D01*
X126781Y191250D02*
X130719D01*
X128750Y189281D02*
Y193219D01*
X122648Y194793D02*
X134852D01*
Y187707D02*
Y194793D01*
X122648Y187707D02*
X134852D01*
X122648D02*
Y194793D01*
X122451Y272195D02*
X135049D01*
Y265305D02*
Y272195D01*
X122451Y265305D02*
X135049D01*
X122451D02*
Y272195D01*
X126781Y268750D02*
X130719D01*
X128750Y266781D02*
Y270719D01*
X171201Y272195D02*
X183799D01*
Y265305D02*
Y272195D01*
X171201Y265305D02*
X183799D01*
X171201D02*
Y272195D01*
X175531Y268750D02*
X179469D01*
X177500Y266781D02*
Y270719D01*
X133701Y212195D02*
X146299D01*
Y205305D02*
Y212195D01*
X133701Y205305D02*
X146299D01*
X133701D02*
Y212195D01*
X138031Y208750D02*
X141969D01*
X140000Y206782D02*
Y210718D01*
X151112Y312146D02*
X155049D01*
X153081Y310177D02*
Y314114D01*
M02*
